<?xml version="1.0" encoding="utf-8"?>
<!-- Generator: Adobe Illustrator 16.0.0, SVG Export Plug-In . SVG Version: 6.00 Build 0)  -->
<!DOCTYPE svg PUBLIC "-//W3C//DTD SVG 1.1//EN" "http://www.w3.org/Graphics/SVG/1.1/DTD/svg11.dtd">
<svg version="1.1" id="Layer_1" xmlns="http://www.w3.org/2000/svg" xmlns:xlink="http://www.w3.org/1999/xlink" x="0px" y="0px"
	 width="96px" height="96px" viewBox="0 0 96 96" enable-background="new 0 0 96 96" xml:space="preserve">
<path d="M48,1.898C22.539,1.898,1.898,22.539,1.898,48S22.539,94.102,48,94.102S94.102,73.461,94.102,48S73.461,1.898,48,1.898z
	 M73.751,48v25.83h-5.15h-5.15l-0.015-17.949l-0.01-17.944l-4.879,17.046c-2.685,9.375-5.001,17.449-5.145,17.944l-0.262,0.904H48
	h-5.141l-0.262-0.904c-0.144-0.495-2.46-8.569-5.146-17.944l-4.878-17.046L32.56,55.881L32.55,73.83h-5.15h-5.15V48V22.17h7.728
	l7.723,0.005l5.146,17.179c2.831,9.45,5.159,17.171,5.17,17.154c0.011-0.016,2.327-7.75,5.15-17.184l5.136-17.149l7.723-0.005h7.728
	V48z"/>
</svg>
