<?xml version="1.0" standalone="no"?><!DOCTYPE svg PUBLIC "-//W3C//DTD SVG 1.1//EN" "http://www.w3.org/Graphics/SVG/1.1/DTD/svg11.dtd"><svg t="1506886695317" class="icon" style="" viewBox="0 0 1172 1024" version="1.1" xmlns="http://www.w3.org/2000/svg" p-id="16039" xmlns:xlink="http://www.w3.org/1999/xlink" width="54.9375" height="48"><defs><style type="text/css"></style></defs><path d="M658.243584 512.032768q0-59.424768-23.141376-113.421312t-62.567424-93.422592-93.422592-62.567424-113.421312-23.141376-113.421312 23.141376-93.422592 62.567424-62.567424 93.422592-23.141376 113.421312 23.141376 113.421312 62.567424 93.422592 93.422592 62.567424 113.421312 23.141376 113.421312-23.141376 93.422592-62.567424 62.567424-93.422592 23.141376-113.421312zm438.829056 0q0-59.424768-23.141376-113.421312t-62.567424-93.422592-93.422592-62.567424-113.421312-23.141376l-220.557312 0q67.995648 51.42528 107.707392 127.991808t39.711744 164.560896-39.711744 164.560896-107.707392 127.991808l220.557312 0q59.424768 0 113.421312-23.141376t93.422592-62.567424 62.567424-93.422592 23.141376-113.421312zm73.138176 0q0 74.28096-29.140992 141.990912t-77.995008 116.563968-116.563968 77.995008-141.990912 29.140992l-438.829056 0q-74.28096 0-141.990912-29.140992t-116.563968-77.995008-77.995008-116.563968-29.140992-141.990912 29.140992-141.990912 77.995008-116.563968 116.563968-77.995008 141.990912-29.140992l438.829056 0q74.28096 0 141.990912 29.140992t116.563968 77.995008 77.995008 116.563968 29.140992 141.990912z" p-id="16040" fill="black"></path></svg>
