<?xml version="1.0" encoding="utf-8"?>
<!-- Generator: Adobe Illustrator 16.0.0, SVG Export Plug-In . SVG Version: 6.00 Build 0)  -->
<!DOCTYPE svg PUBLIC "-//W3C//DTD SVG 1.1//EN" "http://www.w3.org/Graphics/SVG/1.1/DTD/svg11.dtd">
<svg version="1.1" id="Layer_1" xmlns="http://www.w3.org/2000/svg"  x="0px" y="0px"
	 width="96px" height="96px" viewBox="0 0 96 96" enable-background="new 0 0 96 96" xml:space="preserve">
<path fill="darkorange" d="M48,1.09C22.413,1.09,1.673,22.096,1.673,48S22.413,94.91,48,94.91S94.327,73.904,94.327,48
	S73.587,1.09,48,1.09z M66.973,69.872H54.189l3.642-25.921L42.818,62.18L32.315,44.269l-4.367,25.604
	c-4.402,0-8.557-0.123-13.048-0.123h-0.037l7.197-43.976h13.598l9.372,16.497l13.721-16.497h15.012L68.37,59.67
	c-0.213,0,8.734-6.561,20.918-6.561C78.66,55.728,69.997,66.46,66.973,69.872z"/>
</svg>
