<?xml version="1.0" standalone="no"?><!DOCTYPE svg PUBLIC "-//W3C//DTD SVG 1.1//EN" "http://www.w3.org/Graphics/SVG/1.1/DTD/svg11.dtd">
<svg t="1506886661001" class="icon" style="" viewBox="0 0 1172 1024" version="1.1" xmlns="http://www.w3.org/2000/svg" p-id="15089" width="54.9375" height="48">
    <defs>
        <style type="text/css"></style>
    </defs>
    <path d="M0 512.032768q0-74.28096 29.140992-141.990912t77.995008-116.563968 116.563968-77.995008 141.990912-29.140992l438.829056 0q74.28096 0 141.990912 29.140992t116.563968 77.995008 77.995008 116.563968 29.140992 141.990912-29.140992 141.990912-77.995008 116.563968-116.563968 77.995008-141.990912 29.140992l-438.829056 0q-74.28096 0-141.990912-29.140992t-116.563968-77.995008-77.995008-116.563968-29.140992-141.990912zm804.519936 292.552704q59.424768 0 113.421312-23.141376t93.422592-62.567424 62.567424-93.422592 23.141376-113.421312-23.141376-113.421312-62.567424-93.422592-93.422592-62.567424-113.421312-23.141376-113.421312 23.141376-93.422592 62.567424-62.567424 93.422592-23.141376 113.421312 23.141376 113.421312 62.567424 93.422592 93.422592 62.567424 113.421312 23.141376z" p-id="15090" fill="red"></path>
</svg>
